<svg width="543" height="100" viewBox="0 0 543 100" fill="none" xmlns="http://www.w3.org/2000/svg">
<g clip-path="url(#clip0_6_291)">
<path d="M104.951 53.5427L114.564 43.6508C115.827 42.3453 115.793 40.2749 114.477 39.0154C113.162 37.7617 111.076 37.7962 109.807 39.1017L95.2219 54.112V41.3734C95.2219 39.5618 93.7443 38.0952 91.9191 38.0952C90.0938 38.0952 88.6161 39.5618 88.6161 41.3734V69.8815C88.6161 71.6931 90.0938 73.1597 91.9191 73.1597C93.7443 73.1597 95.2219 71.6931 95.2219 69.8815V63.5496L100.333 58.2873L111.632 71.9577C112.287 72.7456 113.231 73.1539 114.188 73.1539C114.923 73.1539 115.665 72.9124 116.279 72.412C117.687 71.2618 117.896 69.1972 116.737 67.7996L104.945 53.5369L104.951 53.5427Z" fill="#F7B232"/>
<path d="M149.581 53.8187C150.722 52.1912 151.394 50.2185 151.394 48.0906C151.394 42.5638 146.863 38.0607 141.289 38.0607C141.115 38.0607 140.947 38.0722 140.779 38.101H126.959C125.133 38.101 123.656 39.5675 123.656 41.3791V69.8873C123.656 71.6989 125.133 73.1654 126.959 73.1654H142.929C143.044 73.1654 143.155 73.1654 143.265 73.1482C149.106 72.9699 153.805 68.208 153.805 62.3649C153.805 58.8912 152.148 55.7971 149.569 53.8187H149.581ZM130.262 44.6515H141.289C141.41 44.6515 141.532 44.6457 141.654 44.6342C143.415 44.8183 144.789 46.2963 144.789 48.0906C144.789 50.0058 143.218 51.5643 141.289 51.5643C141.289 51.5643 141.283 51.5643 141.277 51.5643C141.271 51.5643 141.271 51.5643 141.265 51.5643H130.262V44.6515ZM142.934 66.6092H130.262V58.1205H141.265H141.277C141.277 58.1205 141.283 58.1205 141.289 58.1205H141.3H142.934C145.293 58.1205 147.211 60.0242 147.211 62.3649C147.211 64.7055 145.293 66.6092 142.934 66.6092Z" fill="#F7B232"/>
<path d="M178.861 39.9068C178.861 39.9068 178.878 39.9471 178.884 39.9643C178.658 39.4928 178.322 39.0672 177.881 38.7394C177.881 38.7394 177.875 38.7336 177.87 38.7279C177.777 38.6588 177.684 38.5956 177.58 38.5381C177.545 38.5208 177.516 38.5036 177.481 38.4806C177.453 38.4633 177.424 38.4461 177.389 38.4288C177.342 38.4058 177.296 38.3885 177.244 38.3655C177.203 38.3483 177.157 38.3253 177.116 38.308C177.006 38.262 176.896 38.2275 176.786 38.193C176.763 38.1873 176.74 38.1815 176.717 38.1758C176.606 38.147 176.496 38.124 176.381 38.1067C176.346 38.1067 176.305 38.0952 176.27 38.0952C176.166 38.0837 176.062 38.078 175.958 38.0722C175.934 38.0722 175.917 38.0722 175.894 38.0722C175.882 38.0722 175.871 38.0722 175.859 38.0722C175.732 38.0722 175.604 38.0837 175.477 38.0952C175.424 38.101 175.372 38.1125 175.314 38.124C175.251 38.1355 175.187 38.147 175.123 38.1643C175.048 38.1815 174.978 38.1988 174.903 38.2218C174.868 38.2333 174.839 38.2448 174.804 38.2563C174.549 38.3425 174.318 38.4576 174.097 38.6013C174.057 38.6243 174.016 38.6531 173.976 38.6819C173.924 38.7221 173.871 38.7566 173.825 38.7969C173.767 38.8429 173.715 38.8889 173.663 38.9349C173.628 38.9694 173.593 38.9982 173.559 39.0327C173.385 39.2052 173.228 39.4007 173.095 39.6135C173.078 39.6423 173.06 39.6768 173.043 39.7055C173.014 39.7573 172.979 39.8091 172.95 39.8666L158.359 68.3747C157.241 70.5602 158.858 73.1366 161.303 73.1366C162.508 73.1366 163.667 72.481 164.252 71.3423L166.57 66.8162H185.235L187.552 71.3423C188.381 72.9584 190.369 73.5967 191.991 72.7801C193.619 71.9634 194.262 69.9908 193.44 68.3747L178.866 39.9011L178.861 39.9068ZM169.925 60.2715L175.9 48.591L181.88 60.2715H169.925Z" fill="#F7B232"/>
<path d="M225.999 38.101C224.174 38.101 222.696 39.5675 222.696 41.3791V52.3579H206.141V41.3791C206.141 39.5675 204.664 38.101 202.838 38.101C201.013 38.101 199.536 39.5675 199.536 41.3791V69.8873C199.536 71.6989 201.013 73.1654 202.838 73.1654C204.664 73.1654 206.141 71.6989 206.141 69.8873V58.9084H222.696V69.8873C222.696 71.6989 224.174 73.1654 225.999 73.1654C227.825 73.1654 229.302 71.6989 229.302 69.8873V41.3791C229.302 39.5675 227.825 38.101 225.999 38.101Z" fill="#F7B232"/>
<path d="M262.175 37.9802H238.075C236.25 37.9802 234.772 39.4468 234.772 41.2583C234.772 43.0699 236.25 44.5365 238.075 44.5365H246.825V69.7665C246.825 71.5781 248.303 73.0446 250.128 73.0446C251.953 73.0446 253.431 71.5781 253.431 69.7665V44.5365H262.18C264.006 44.5365 265.483 43.0699 265.483 41.2583C265.483 39.4468 264.006 37.9802 262.18 37.9802H262.175Z" fill="#F7B232"/>
<path d="M301.589 39.9701C301.386 39.556 301.103 39.188 300.755 38.8889C300.755 38.8889 300.749 38.8889 300.743 38.8831C300.743 38.8831 300.743 38.8831 300.737 38.8774C300.737 38.8774 300.732 38.8716 300.726 38.8659C300.674 38.8199 300.616 38.7796 300.564 38.7394C300.019 38.3425 299.347 38.1125 298.622 38.1125C298.547 38.1125 298.466 38.1125 298.391 38.1183C298.391 38.1183 298.385 38.1183 298.379 38.1183C298.002 38.147 297.626 38.239 297.278 38.3943C297.278 38.3943 297.272 38.3943 297.267 38.3943C297.267 38.3943 297.267 38.3943 297.261 38.3943C296.861 38.5726 296.502 38.8314 296.2 39.1477C296.2 39.1477 296.195 39.1534 296.189 39.1592C296.16 39.1937 296.125 39.2282 296.096 39.2627L296.079 39.2857L277.553 60.9673V41.3849C277.553 39.5733 276.076 38.1068 274.251 38.1068C272.425 38.1068 270.948 39.5733 270.948 41.3849V69.893C270.948 69.893 270.948 69.9218 270.948 69.9333V69.9621C270.959 70.4336 271.069 70.8937 271.272 71.3136C271.44 71.6644 271.672 71.9749 271.95 72.2452C272.002 72.297 272.054 72.343 272.112 72.389C272.263 72.5155 272.419 72.6248 272.582 72.7226H272.588C272.588 72.7226 272.593 72.7283 272.599 72.7341C272.599 72.7341 272.611 72.7341 272.611 72.7398C272.732 72.8088 272.86 72.8664 272.987 72.9239C272.987 72.9239 272.999 72.9239 273.005 72.9296C273.005 72.9296 273.01 72.9296 273.016 72.9296C273.016 72.9296 273.016 72.9296 273.022 72.9296C273.022 72.9296 273.028 72.9296 273.034 72.9296C273.034 72.9296 273.039 72.9296 273.045 72.9296C273.045 72.9296 273.045 72.9296 273.051 72.9296C273.335 73.0389 273.631 73.1022 273.926 73.1309C273.926 73.1309 273.932 73.1309 273.938 73.1309C273.938 73.1309 273.938 73.1309 273.943 73.1309H273.955C273.961 73.1309 273.967 73.1309 273.972 73.1309C274.054 73.1367 274.14 73.1424 274.227 73.1424C274.703 73.1424 275.178 73.0389 275.612 72.8434C275.612 72.8434 275.612 72.8434 275.618 72.8434H275.624C276.029 72.6536 276.389 72.3833 276.684 72.0555C276.702 72.0324 276.725 72.0094 276.742 71.9922L276.754 71.9807L295.291 50.2933V69.87C295.291 71.6816 296.768 73.1482 298.593 73.1482C300.419 73.1482 301.896 71.6816 301.896 69.87V41.3619C301.896 40.8788 301.792 40.3957 301.578 39.9529L301.589 39.9701Z" fill="#F7B232"/>
<path d="M326.442 53.5427L336.055 43.6508C337.318 42.3453 337.284 40.2749 335.968 39.0154C334.653 37.7617 332.567 37.7962 331.298 39.1017L316.713 54.112V41.3734C316.713 39.5618 315.235 38.0952 313.41 38.0952C311.585 38.0952 310.107 39.5618 310.107 41.3734V69.8815C310.107 71.6931 311.585 73.1597 313.41 73.1597C315.235 73.1597 316.713 71.6931 316.713 69.8815V63.5496L321.824 58.2873L333.123 71.9577C333.778 72.7456 334.723 73.1539 335.679 73.1539C336.415 73.1539 337.156 72.9124 337.77 72.412C339.179 71.2618 339.387 69.1972 338.228 67.7996L326.436 53.5369L326.442 53.5427Z" fill="#F7B232"/>
<path d="M372.77 38.6589C372.207 38.2965 371.582 38.1183 370.956 38.1183C369.884 38.1183 368.823 38.6416 368.198 39.5905L358.724 53.8302L348.206 39.464C347.563 38.5956 346.555 38.1183 345.535 38.1183C344.857 38.1183 344.179 38.3138 343.606 38.7394C342.14 39.8033 341.809 41.8507 342.881 43.3115L354.847 59.6618L349.232 68.0814C348.224 69.5882 348.635 71.6184 350.159 72.6191C350.721 72.9814 351.347 73.1597 351.973 73.1597C353.045 73.1597 354.088 72.6363 354.731 71.6874L361.476 61.5712C361.511 61.531 361.551 61.4964 361.58 61.4504L361.615 61.3987C361.615 61.3987 361.632 61.3642 361.65 61.3469L361.667 61.3124C361.667 61.3124 361.65 61.3412 361.638 61.3584C361.638 61.3584 361.656 61.3239 361.667 61.3067L373.72 43.1907C374.728 41.6839 374.299 39.6538 372.781 38.6531L372.77 38.6589ZM361.551 61.4562C361.551 61.4562 361.58 61.4217 361.592 61.4044L361.609 61.3872C361.609 61.3872 361.574 61.4332 361.557 61.4562H361.551Z" fill="#F7B232"/>
<path d="M414.797 41.3389V41.1433C414.797 41.0628 414.792 41.011 414.78 40.988C414.768 40.965 414.751 40.9075 414.74 40.8328C414.728 40.7522 414.722 40.7005 414.722 40.6775C414.722 40.6545 414.711 40.6142 414.682 40.5625C414.658 40.4819 414.641 40.4187 414.641 40.3669L414.6 40.2519C414.571 40.1714 414.548 40.1196 414.519 40.0966C414.519 40.0736 414.479 39.9816 414.403 39.8206C414.38 39.7976 414.34 39.7401 414.288 39.6653C414.259 39.5848 414.235 39.5503 414.206 39.5503C414.206 39.5273 414.177 39.4697 414.125 39.395C414.073 39.3432 414.033 39.303 414.009 39.28C414.009 39.257 413.98 39.2167 413.928 39.1649C413.876 39.1132 413.836 39.0729 413.812 39.0499C413.783 39.0269 413.76 38.9982 413.731 38.9694C413.679 38.9464 413.639 38.9176 413.615 38.8889L413.575 38.8486C413.1 38.4576 412.532 38.2218 411.877 38.1412H411.164C411.112 38.1412 411.048 38.147 410.967 38.1585C410.886 38.17 410.834 38.193 410.811 38.216C410.782 38.216 410.73 38.2275 410.654 38.2563C410.573 38.2563 410.521 38.2678 410.498 38.2965C410.469 38.2965 410.417 38.308 410.341 38.3368C410.26 38.3655 410.208 38.3828 410.185 38.3943C410.162 38.4058 410.11 38.4346 410.046 38.4748C409.982 38.5151 409.936 38.5323 409.907 38.5323C409.878 38.5611 409.826 38.5956 409.75 38.6473C409.698 38.6761 409.658 38.6876 409.635 38.6876C409.611 38.7106 409.571 38.7509 409.519 38.8026L409.403 38.8831C409.403 38.8831 409.339 38.9464 409.287 38.9982C409.258 38.9982 409.246 39.0097 409.246 39.0384C409.223 39.0672 409.2 39.0787 409.188 39.0787C409.177 39.0787 409.159 39.0902 409.148 39.1189C409.136 39.1477 409.101 39.1822 409.049 39.234C409.02 39.2857 409.003 39.3145 408.991 39.3145C408.98 39.3145 408.968 39.3202 408.951 39.3317C408.939 39.3432 408.933 39.3605 408.933 39.372C408.933 39.3835 408.928 39.3892 408.916 39.3892C408.904 39.3892 408.899 39.4007 408.899 39.4295L397.153 54.6929L385.883 39.464C385.883 39.464 385.83 39.4122 385.801 39.3835C385.773 39.3317 385.744 39.2857 385.703 39.2455C385.662 39.2052 385.622 39.1649 385.587 39.1304C385.547 39.0902 385.512 39.0614 385.489 39.0327C385.436 38.9809 385.396 38.9406 385.373 38.9176C385.321 38.8889 385.28 38.8659 385.257 38.8371C385.205 38.7854 385.153 38.7451 385.1 38.7221C385.071 38.6991 385.037 38.6703 384.984 38.6416C384.932 38.5898 384.88 38.5611 384.828 38.5611C384.799 38.5381 384.764 38.5093 384.712 38.4806C384.66 38.4576 384.614 38.4288 384.573 38.4C384.532 38.3713 384.475 38.3483 384.393 38.3195C384.341 38.2965 384.301 38.2793 384.278 38.2793C384.225 38.2563 384.173 38.239 384.121 38.239C384.069 38.216 384.017 38.1988 383.965 38.1988C383.912 38.1758 383.86 38.1585 383.808 38.1585C383.756 38.1585 383.704 38.1527 383.652 38.1412C383.6 38.1297 383.547 38.124 383.495 38.124H382.783C381.937 38.2563 381.253 38.6358 380.725 39.2627C380.696 39.2915 380.673 39.3145 380.644 39.3432C380.644 39.372 380.633 39.3835 380.604 39.3835C380.575 39.4352 380.552 39.4755 380.523 39.4985C380.494 39.5273 380.471 39.5618 380.442 39.6135C380.413 39.6653 380.389 39.7113 380.36 39.7516C380.331 39.7918 380.308 39.8436 380.279 39.9068C380.25 39.9701 380.227 40.0219 380.198 40.0449C380.169 40.0966 380.146 40.1484 380.117 40.2001C380.117 40.2519 380.105 40.2922 380.076 40.3152C380.076 40.3669 380.065 40.4302 380.036 40.5107C380.007 40.5625 379.995 40.6027 379.995 40.6257C379.995 40.6775 379.984 40.7695 379.955 40.9018C379.955 40.9305 379.943 40.965 379.914 41.0168V69.8585C379.914 70.7729 380.239 71.5551 380.882 72.1935C381.525 72.8376 382.307 73.1539 383.217 73.1539C384.127 73.1539 384.903 72.8318 385.552 72.1935C386.196 71.5493 386.52 70.7729 386.52 69.8585V51.3343L394.43 62.0485L394.47 62.0888C394.522 62.1406 394.574 62.2038 394.627 62.2843L394.667 62.3246C394.8 62.4799 394.957 62.6236 395.142 62.7559C395.223 62.8077 395.287 62.8594 395.339 62.9112H395.38C395.432 62.963 395.496 63.0032 395.577 63.0262L395.617 63.0665C395.67 63.0952 395.722 63.1182 395.774 63.147C396.353 63.4863 397.026 63.5783 397.79 63.423C398.555 63.2678 399.216 62.8364 399.766 62.1291V62.0888H399.807L408.226 51.1042V69.8988C408.226 70.7902 408.551 71.5551 409.194 72.1935C409.837 72.8376 410.62 73.1539 411.529 73.1539C412.439 73.1539 413.216 72.8318 413.865 72.1935C414.508 71.5493 414.832 70.7902 414.832 69.8988V41.4079V41.3274L414.797 41.3389Z" fill="#F7B232"/>
<path d="M465.575 39.0729C464.932 38.4346 464.167 38.1183 463.28 38.1183H445.509C444.674 38.1183 443.95 38.3886 443.353 38.9349C442.623 39.5848 442.258 40.3899 442.258 41.3504H442.217V44.3869C442.194 45.9167 442.177 47.067 442.177 47.8319C442.177 48.5967 442.159 49.6434 442.119 50.9662C442.078 52.2889 442.032 53.2954 441.98 53.9855C441.928 54.6757 441.846 55.5556 441.742 56.631C441.638 57.7065 441.51 58.5519 441.371 59.1615C441.226 59.7711 441.053 60.4843 440.844 61.3009C440.635 62.1176 440.392 62.7904 440.12 63.308C439.847 63.8256 439.523 64.349 439.158 64.8666C438.793 65.3842 438.375 65.8385 437.9 66.2296L436.962 67.0463C436.255 67.6156 435.861 68.4093 435.785 69.4215C435.704 70.4336 435.953 71.2791 436.533 71.9519C437.106 72.6536 437.918 73.0504 438.967 73.1424C440.01 73.2344 440.861 72.9814 441.516 72.3833L442.495 71.3711C443.411 70.4624 444.216 69.4215 444.912 68.254C445.607 67.0865 446.169 65.781 446.598 64.3432C447.027 62.9055 447.38 61.4964 447.658 60.1162C447.931 58.7417 448.145 57.1026 448.284 55.2105C448.429 53.3184 448.528 51.6276 448.58 50.1495C448.632 48.6715 448.672 46.8254 448.696 44.6227H459.995L460.076 69.6227C460.076 70.5314 460.395 71.2963 461.038 71.9174C461.675 72.5385 462.452 72.8491 463.35 72.8491C464.248 72.8491 465.03 72.5328 465.685 71.8944C466.34 71.2561 466.653 70.5027 466.624 69.617L466.549 41.3849C466.549 40.4762 466.23 39.7056 465.587 39.0672L465.575 39.0729Z" fill="#3BA6DE"/>
<path d="M493.18 39.9068C493.18 39.9068 493.198 39.9471 493.204 39.9643C492.978 39.4928 492.642 39.0672 492.201 38.7394C492.201 38.7394 492.19 38.7336 492.19 38.7279C492.097 38.6588 491.998 38.5956 491.9 38.5381C491.865 38.5208 491.836 38.5036 491.801 38.4806C491.772 38.4633 491.743 38.4461 491.709 38.4288C491.662 38.4058 491.616 38.3885 491.564 38.3655C491.523 38.3483 491.483 38.3253 491.436 38.308C491.326 38.262 491.216 38.2275 491.106 38.193C491.083 38.1873 491.06 38.1815 491.036 38.1758C490.926 38.147 490.816 38.124 490.7 38.1067C490.666 38.1067 490.625 38.0952 490.59 38.0952C490.486 38.0837 490.382 38.078 490.277 38.0722C490.254 38.0722 490.237 38.0722 490.214 38.0722C490.202 38.0722 490.19 38.0722 490.179 38.0722C490.051 38.0722 489.924 38.0837 489.796 38.0952C489.744 38.101 489.692 38.1125 489.64 38.124C489.576 38.1355 489.507 38.147 489.449 38.1643C489.373 38.1815 489.304 38.1988 489.229 38.2218C489.194 38.2333 489.165 38.2448 489.13 38.2563C488.875 38.3425 488.643 38.4576 488.423 38.6013C488.383 38.6243 488.342 38.6531 488.301 38.6819C488.249 38.7221 488.197 38.7566 488.151 38.7969C488.093 38.8429 488.041 38.8889 487.989 38.9349C487.954 38.9694 487.919 38.9982 487.884 39.0327C487.71 39.2052 487.554 39.4007 487.421 39.6135C487.403 39.6423 487.386 39.6768 487.368 39.7055C487.34 39.7573 487.305 39.8091 487.276 39.8666L472.685 68.3747C471.567 70.5602 473.183 73.1366 475.623 73.1366C476.828 73.1366 477.987 72.481 478.572 71.3423L480.884 66.8162H499.549L501.861 71.3423C502.689 72.9584 504.677 73.5967 506.299 72.7801C507.922 71.9634 508.571 69.9908 507.748 68.3747L493.175 39.9011L493.18 39.9068ZM484.245 60.2715L490.219 48.591L496.194 60.2715H484.239H484.245Z" fill="#3BA6DE"/>
<path d="M531.981 51.5643H530.341H520.467V44.6515H537.59C539.415 44.6515 540.893 43.185 540.893 41.3734C540.893 39.5618 539.415 38.0952 537.59 38.0952H517.164C516.938 38.0952 516.712 38.1183 516.498 38.1643C516.388 38.1873 516.283 38.216 516.179 38.2448C514.835 38.6589 513.861 39.9011 513.861 41.3734V69.8815C513.861 71.3538 514.835 72.596 516.179 73.0101C516.486 73.1079 516.816 73.1597 517.158 73.1597H531.975C532.091 73.1597 532.201 73.1539 532.311 73.1424C538.152 72.9641 542.851 68.2022 542.851 62.3591C542.851 56.401 537.972 51.5586 531.969 51.5586L531.981 51.5643ZM531.981 66.6092H520.467V58.1205H531.981C534.339 58.1205 536.257 60.0242 536.257 62.3649C536.257 64.7056 534.339 66.6092 531.981 66.6092Z" fill="#3BA6DE"/>
<path d="M271.631 97.0324V100H270.727V97.8606H262.708V88.7393H263.664V97.0267H269.215V88.7393H270.171V97.0267H271.626L271.631 97.0324Z" fill="#3BA6DE"/>
<path d="M280.062 97.0324V97.8663H273.567V88.7451H279.865V89.579H274.534V92.8226H279.286V93.645H274.534V97.0324H280.062Z" fill="#3BA6DE"/>
<path d="M289.896 88.7451V97.8663H288.94V93.6565H283.191V97.8663H282.218V88.7451H283.191V92.8111H288.94V88.7451H289.896Z" fill="#3BA6DE"/>
<path d="M299.005 89.579H295.777V97.8663H294.821V89.579H291.594V88.7451H299.011V89.579H299.005Z" fill="#3BA6DE"/>
<path d="M306.909 89.579C307.575 90.1369 307.905 90.9018 307.905 91.8737C307.905 92.8456 307.575 93.6105 306.909 94.1626C306.242 94.7147 305.327 94.9908 304.15 94.9908H301.682V97.8721H300.708V88.7509H304.15C305.321 88.7509 306.242 89.0269 306.909 89.5848V89.579ZM306.213 93.5473C306.694 93.1504 306.938 92.5926 306.938 91.8737C306.938 91.1548 306.694 90.5682 306.213 90.1714C305.732 89.7745 305.037 89.579 304.127 89.579H301.688V94.1396H304.127C305.037 94.1396 305.732 93.9441 306.213 93.5473Z" fill="#3BA6DE"/>
<path d="M315.027 97.343C314.297 96.9461 313.723 96.3883 313.306 95.6809C312.889 94.9735 312.68 94.1799 312.68 93.3057C312.68 92.4315 312.889 91.6379 313.306 90.9305C313.723 90.2231 314.297 89.671 315.033 89.2684C315.768 88.8659 316.591 88.6703 317.501 88.6703C318.185 88.6703 318.816 88.7853 319.39 89.0096C319.964 89.2339 320.456 89.5675 320.862 89.9988L320.248 90.6084C319.529 89.8896 318.625 89.5272 317.53 89.5272C316.806 89.5272 316.145 89.694 315.548 90.0218C314.951 90.3496 314.488 90.804 314.152 91.3791C313.816 91.9542 313.648 92.5926 313.648 93.3057C313.648 94.0188 313.816 94.663 314.152 95.2323C314.488 95.8074 314.957 96.256 315.548 96.5896C316.145 96.9174 316.806 97.0842 317.53 97.0842C318.631 97.0842 319.541 96.7219 320.248 95.9915L320.862 96.6011C320.462 97.0382 319.97 97.366 319.384 97.596C318.805 97.8261 318.167 97.9411 317.489 97.9411C316.58 97.9411 315.757 97.7398 315.027 97.343Z" fill="#3BA6DE"/>
<path d="M324.229 97.3372C323.487 96.9346 322.913 96.3768 322.496 95.6752C322.079 94.9735 321.87 94.1799 321.87 93.3057C321.87 92.4315 322.079 91.6379 322.496 90.9363C322.913 90.2346 323.487 89.6768 324.229 89.2742C324.97 88.8716 325.793 88.6703 326.703 88.6703C327.613 88.6703 328.435 88.8716 329.166 89.2684C329.896 89.6653 330.469 90.2231 330.892 90.9305C331.315 91.6379 331.524 92.4315 331.524 93.3057C331.524 94.1799 331.315 94.9735 330.892 95.6809C330.475 96.3883 329.896 96.9404 329.166 97.343C328.435 97.7398 327.613 97.9411 326.703 97.9411C325.793 97.9411 324.97 97.7398 324.229 97.3372ZM328.673 96.5953C329.258 96.2675 329.716 95.8189 330.052 95.2381C330.388 94.6572 330.55 94.0131 330.55 93.3057C330.55 92.5983 330.382 91.9484 330.052 91.3733C329.722 90.7982 329.258 90.3439 328.673 90.0161C328.088 89.6883 327.427 89.5272 326.703 89.5272C325.979 89.5272 325.318 89.6883 324.727 90.0161C324.136 90.3439 323.672 90.7925 323.336 91.3733C323 91.9542 322.832 92.5983 322.832 93.3057C322.832 94.0131 323 94.663 323.336 95.2381C323.672 95.8132 324.136 96.2675 324.727 96.5953C325.318 96.9231 325.979 97.0842 326.703 97.0842C327.427 97.0842 328.088 96.9231 328.673 96.5953Z" fill="#3BA6DE"/>
<path d="M340.755 93.9211C341.085 94.3007 341.253 94.7895 341.253 95.3991C341.253 96.187 340.969 96.7966 340.407 97.2222C339.845 97.6478 339.01 97.8606 337.921 97.8606H333.853V88.7393H337.672C338.651 88.7393 339.416 88.9406 339.972 89.3375C340.523 89.74 340.801 90.3152 340.801 91.0685C340.801 91.5804 340.668 92.0117 340.407 92.3625C340.146 92.7134 339.775 92.9779 339.306 93.1504C339.943 93.2827 340.43 93.5358 340.766 93.9096L340.755 93.9211ZM334.809 92.8744H337.62C338.327 92.8744 338.871 92.7306 339.254 92.4431C339.636 92.1555 339.827 91.7414 339.827 91.1893C339.827 90.6372 339.636 90.2231 339.254 89.9356C338.871 89.648 338.327 89.5042 337.62 89.5042H334.809V92.8686V92.8744ZM340.297 95.3359C340.297 94.1914 339.503 93.6163 337.921 93.6163H334.809V97.0957H337.921C339.503 97.0957 340.297 96.5091 340.297 95.3359Z" fill="#3BA6DE"/>
<path d="M349.875 89.579C350.542 90.1369 350.872 90.9018 350.872 91.8737C350.872 92.8456 350.542 93.6105 349.875 94.1626C349.209 94.7147 348.293 94.9908 347.117 94.9908H344.649V97.8721H343.675V88.7509H347.117C348.288 88.7509 349.209 89.0269 349.875 89.5848V89.579ZM349.18 93.5473C349.661 93.1504 349.904 92.5926 349.904 91.8737C349.904 91.1548 349.661 90.5682 349.18 90.1714C348.699 89.7745 348.004 89.579 347.094 89.579H344.654V94.1396H347.094C348.004 94.1396 348.699 93.9441 349.18 93.5473Z" fill="#3BA6DE"/>
<path d="M359.367 97.0324V97.8663H352.871V88.7451H359.17V89.579H353.839V92.8226H358.59V93.645H353.839V97.0324H359.367Z" fill="#3BA6DE"/>
<path d="M371.066 88.7451V97.8663H370.133V90.5682L366.523 96.7046H366.065L362.455 90.6084V97.8663H361.522V88.7451H362.322L366.314 95.5084L370.266 88.7451H371.066Z" fill="#3BA6DE"/>
<path d="M380.662 97.0324V97.8663H374.166V88.7451H380.465V89.579H375.134V92.8226H379.885V93.645H375.134V97.0324H380.662Z" fill="#3BA6DE"/>
<path d="M390.495 88.7451V97.8663H389.539V93.6565H383.791V97.8663H382.817V88.7451H383.791V92.8111H389.539V88.7451H390.495Z" fill="#3BA6DE"/>
<path d="M401.273 88.7451V97.8663H400.317V93.6565H394.569V97.8663H393.595V88.7451H394.569V92.8111H400.317V88.7451H401.273Z" fill="#3BA6DE"/>
<path d="M405.926 97.3372C405.184 96.9346 404.611 96.3768 404.193 95.6752C403.776 94.9735 403.568 94.1799 403.568 93.3057C403.568 92.4315 403.776 91.6379 404.193 90.9363C404.611 90.2346 405.184 89.6768 405.926 89.2742C406.668 88.8716 407.49 88.6703 408.4 88.6703C409.31 88.6703 410.133 88.8716 410.863 89.2684C411.593 89.6653 412.167 90.2231 412.59 90.9305C413.013 91.6379 413.221 92.4315 413.221 93.3057C413.221 94.1799 413.013 94.9735 412.59 95.6809C412.173 96.3883 411.593 96.9404 410.863 97.343C410.133 97.7398 409.31 97.9411 408.4 97.9411C407.49 97.9411 406.668 97.7398 405.926 97.3372ZM410.37 96.5953C410.956 96.2675 411.413 95.8189 411.75 95.2381C412.08 94.663 412.248 94.0131 412.248 93.3057C412.248 92.5983 412.08 91.9484 411.75 91.3733C411.419 90.7982 410.956 90.3439 410.37 90.0161C409.785 89.6883 409.125 89.5272 408.4 89.5272C407.676 89.5272 407.015 89.6883 406.424 90.0161C405.833 90.3439 405.37 90.7925 405.034 91.3733C404.698 91.9542 404.529 92.5983 404.529 93.3057C404.529 94.0131 404.698 94.663 405.034 95.2381C405.37 95.8132 405.833 96.2675 406.424 96.5953C407.015 96.9231 407.676 97.0842 408.4 97.0842C409.125 97.0842 409.785 96.9231 410.37 96.5953Z" fill="#3BA6DE"/>
<path d="M421.386 89.579H416.489L416.501 97.8663H415.545V88.7451H421.386V89.579Z" fill="#3BA6DE"/>
<path d="M423.362 97.3372C422.62 96.9346 422.046 96.3768 421.629 95.6752C421.212 94.9735 421.003 94.1799 421.003 93.3057C421.003 92.4315 421.212 91.6379 421.629 90.9363C422.046 90.2346 422.62 89.6768 423.362 89.2742C424.103 88.8716 424.926 88.6703 425.836 88.6703C426.746 88.6703 427.569 88.8716 428.299 89.2684C429.029 89.6653 429.603 90.2231 430.026 90.9305C430.449 91.6379 430.657 92.4315 430.657 93.3057C430.657 94.1799 430.449 94.9735 430.026 95.6809C429.608 96.3883 429.029 96.9404 428.299 97.343C427.569 97.7398 426.746 97.9411 425.836 97.9411C424.926 97.9411 424.103 97.7398 423.362 97.3372ZM427.806 96.5953C428.391 96.2675 428.849 95.8189 429.185 95.2381C429.521 94.6572 429.684 94.0131 429.684 93.3057C429.684 92.5983 429.516 91.9484 429.185 91.3733C428.855 90.7982 428.391 90.3439 427.806 90.0161C427.221 89.6883 426.56 89.5272 425.836 89.5272C425.112 89.5272 424.451 89.6883 423.86 90.0161C423.269 90.3439 422.806 90.7925 422.469 91.3733C422.133 91.9542 421.965 92.5983 421.965 93.3057C421.965 94.0131 422.133 94.663 422.469 95.2381C422.806 95.8132 423.269 96.2675 423.86 96.5953C424.451 96.9231 425.112 97.0842 425.836 97.0842C426.56 97.0842 427.221 96.9231 427.806 96.5953Z" fill="#3BA6DE"/>
<path d="M437.976 97.3372C437.234 96.9346 436.66 96.3768 436.243 95.6752C435.826 94.9735 435.617 94.1799 435.617 93.3057C435.617 92.4315 435.826 91.6379 436.243 90.9363C436.66 90.2346 437.234 89.6768 437.976 89.2742C438.717 88.8716 439.54 88.6703 440.45 88.6703C441.36 88.6703 442.182 88.8716 442.913 89.2684C443.643 89.6653 444.216 90.2231 444.639 90.9305C445.062 91.6379 445.271 92.4315 445.271 93.3057C445.271 94.1799 445.062 94.9735 444.639 95.6809C444.222 96.3883 443.643 96.9404 442.913 97.343C442.182 97.7455 441.36 97.9411 440.45 97.9411C439.54 97.9411 438.717 97.7398 437.976 97.3372ZM442.42 96.5953C443.005 96.2675 443.463 95.8189 443.799 95.2381C444.135 94.6572 444.298 94.0131 444.298 93.3057C444.298 92.5983 444.129 91.9484 443.799 91.3733C443.469 90.7982 443.005 90.3439 442.42 90.0161C441.835 89.6883 441.174 89.5272 440.45 89.5272C439.726 89.5272 439.065 89.6883 438.474 90.0161C437.883 90.3439 437.419 90.7925 437.083 91.3733C436.747 91.9542 436.579 92.5983 436.579 93.3057C436.579 94.0131 436.747 94.663 437.083 95.2381C437.419 95.8132 437.883 96.2675 438.474 96.5953C439.065 96.9231 439.726 97.0842 440.45 97.0842C441.174 97.0842 441.835 96.9231 442.42 96.5953Z" fill="#3BA6DE"/>
<path d="M447.589 88.7451H454.311V89.5675H448.545V92.5523H451.552C452.636 92.5523 453.464 92.7709 454.027 93.2137C454.589 93.6565 454.873 94.3006 454.873 95.1403C454.873 95.98 454.571 96.6931 453.957 97.1589C453.349 97.6248 452.474 97.8606 451.338 97.8606H447.583V88.7393L447.589 88.7451ZM451.332 97.0957C452.178 97.0957 452.821 96.9347 453.256 96.6126C453.69 96.2905 453.905 95.8132 453.905 95.1806C453.905 94.548 453.69 94.0879 453.267 93.7773C452.844 93.4667 452.195 93.3172 451.332 93.3172H448.551V97.0957H451.332Z" fill="#3BA6DE"/>
<path d="M463.333 89.579C463.999 90.1369 464.329 90.9018 464.329 91.8737C464.329 92.8456 463.999 93.6105 463.333 94.1626C462.666 94.7147 461.751 94.9908 460.574 94.9908H458.106V97.8721H457.132V88.7509H460.574C461.745 88.7509 462.666 89.0269 463.333 89.5848V89.579ZM462.637 93.5473C463.118 93.1504 463.362 92.5926 463.362 91.8737C463.362 91.1548 463.118 90.5682 462.637 90.1714C462.156 89.7745 461.461 89.579 460.551 89.579H458.112V94.1396H460.551C461.461 94.1396 462.156 93.9441 462.637 93.5473Z" fill="#3BA6DE"/>
<path d="M471.746 95.4279H466.624L465.523 97.8663H464.515L468.716 88.7451H469.672L473.873 97.8663H472.847L471.746 95.4279ZM471.393 94.6457L469.185 89.7458L466.977 94.6457H471.387H471.393Z" fill="#3BA6DE"/>
<path d="M481.047 93.9038C481.394 94.2949 481.568 94.7607 481.568 95.3128C481.568 95.8649 481.4 96.3078 481.07 96.7046C480.739 97.1072 480.293 97.412 479.743 97.6248C479.192 97.8376 478.59 97.9468 477.947 97.9468C477.332 97.9468 476.73 97.8491 476.139 97.6535C475.548 97.458 475.014 97.1647 474.545 96.7736L474.899 96.0835C475.298 96.4228 475.762 96.6816 476.278 96.8599C476.793 97.0382 477.315 97.1244 477.842 97.1244C478.37 97.1244 478.798 97.0439 479.221 96.8886C479.644 96.7334 479.975 96.5091 480.224 96.2158C480.473 95.9225 480.6 95.5774 480.6 95.1806C480.6 94.6515 480.392 94.2431 479.969 93.9556C479.546 93.668 478.961 93.5243 478.196 93.5243H476.226V92.7421H478.144C478.792 92.7421 479.297 92.6041 479.662 92.3338C480.027 92.0577 480.206 91.6782 480.206 91.1951C480.206 90.6545 479.975 90.2346 479.511 89.9241C479.047 89.6135 478.462 89.464 477.767 89.464C477.326 89.464 476.886 89.5272 476.44 89.6538C475.994 89.7803 475.571 89.9701 475.165 90.2231L474.835 89.4295C475.745 88.8889 476.73 88.6243 477.79 88.6243C478.41 88.6243 478.978 88.7221 479.494 88.9234C480.009 89.1247 480.421 89.4122 480.722 89.786C481.023 90.1599 481.174 90.597 481.174 91.103C481.174 91.6091 481.041 92.006 480.768 92.3625C480.496 92.7134 480.114 92.9664 479.627 93.1102C480.23 93.2597 480.705 93.5243 481.052 93.9153L481.047 93.9038Z" fill="#3BA6DE"/>
<path d="M485.537 97.3372C484.796 96.9346 484.222 96.3768 483.805 95.6752C483.388 94.9735 483.179 94.1799 483.179 93.3057C483.179 92.4315 483.388 91.6379 483.805 90.9363C484.222 90.2346 484.796 89.6768 485.537 89.2742C486.279 88.8716 487.102 88.6703 488.012 88.6703C488.921 88.6703 489.744 88.8716 490.474 89.2684C491.204 89.6653 491.778 90.2231 492.201 90.9305C492.624 91.6379 492.833 92.4315 492.833 93.3057C492.833 94.1799 492.624 94.9735 492.201 95.6809C491.784 96.3883 491.204 96.9404 490.474 97.343C489.744 97.7398 488.921 97.9411 488.012 97.9411C487.102 97.9411 486.279 97.7398 485.537 97.3372ZM489.982 96.5953C490.567 96.2675 491.025 95.8189 491.361 95.2381C491.697 94.6572 491.859 94.0131 491.859 93.3057C491.859 92.5983 491.691 91.9484 491.361 91.3733C491.031 90.7982 490.567 90.3439 489.982 90.0161C489.397 89.6883 488.736 89.5272 488.012 89.5272C487.287 89.5272 486.627 89.6883 486.036 90.0161C485.445 90.3439 484.981 90.7925 484.645 91.3733C484.309 91.9542 484.141 92.5983 484.141 93.3057C484.141 94.0131 484.309 94.663 484.645 95.2381C484.981 95.8132 485.445 96.2675 486.036 96.5953C486.627 96.9231 487.287 97.0842 488.012 97.0842C488.736 97.0842 489.397 96.9231 489.982 96.5953Z" fill="#3BA6DE"/>
<path d="M502.058 93.9211C502.388 94.3007 502.556 94.7895 502.556 95.3991C502.556 96.187 502.272 96.7966 501.71 97.2222C501.148 97.6478 500.313 97.8606 499.224 97.8606H495.156V88.7393H498.975C499.954 88.7393 500.719 88.9406 501.275 89.3375C501.826 89.74 502.104 90.3152 502.104 91.0685C502.104 91.5804 501.971 92.0117 501.71 92.3625C501.449 92.7134 501.078 92.9779 500.609 93.1504C501.246 93.2827 501.733 93.5358 502.069 93.9096L502.058 93.9211ZM496.112 92.8744H498.923C499.63 92.8744 500.174 92.7306 500.557 92.4431C500.939 92.1555 501.131 91.7414 501.131 91.1893C501.131 90.6372 500.939 90.2231 500.557 89.9356C500.174 89.648 499.63 89.5042 498.923 89.5042H496.112V92.8686V92.8744ZM501.6 95.3359C501.6 94.1914 500.806 93.6163 499.224 93.6163H496.112V97.0957H499.224C500.806 97.0957 501.6 96.5091 501.6 95.3359Z" fill="#3BA6DE"/>
<path d="M510.865 95.4279H505.743L504.642 97.8663H503.634L507.835 88.7451H508.791L512.992 97.8663H511.966L510.865 95.4279ZM510.512 94.6457L508.304 89.7458L506.096 94.6457H510.506H510.512Z" fill="#3BA6DE"/>
<path d="M522.431 88.7451V97.8663H521.475V93.6565H515.727V97.8663H514.754V88.7451H515.727V92.8111H521.475V88.7451H522.431Z" fill="#3BA6DE"/>
<path d="M525.531 88.7451H526.488V96.302L532.369 88.7451H533.25V97.8663H532.294V90.3209L526.412 97.8663H525.531V88.7451Z" fill="#3BA6DE"/>
<path d="M542.857 88.7451V97.8663H541.901V95.1058H539.16C539.038 95.1058 538.865 95.0943 538.633 95.077L536.703 97.8663H535.666L537.752 94.9103C537.08 94.709 536.564 94.3582 536.205 93.8463C535.846 93.3345 535.666 92.7133 535.666 91.9772C535.666 90.9535 535.991 90.1599 536.645 89.5905C537.294 89.0269 538.181 88.7451 539.293 88.7451H542.863H542.857ZM537.294 93.6795C537.735 94.0821 538.384 94.2834 539.23 94.2834H541.895V89.579H539.322C538.465 89.579 537.804 89.7803 537.335 90.1829C536.866 90.5854 536.634 91.1778 536.634 91.9484C536.634 92.7191 536.854 93.2712 537.294 93.6738V93.6795Z" fill="#3BA6DE"/>
<path d="M55.8595 92.9319C52.4871 92.9319 47.9441 90.4762 42.6885 85.7546C36.0016 79.7447 28.8337 70.727 22.5118 60.3692C9.10325 38.3886 3.96927 17.9434 10.8358 13.8142C14.243 11.7668 19.9217 14.0557 26.823 20.2611C33.5099 26.271 40.6778 35.2887 46.9996 45.6465C53.3215 56.0042 58.0557 66.4827 60.3271 75.1496C62.6739 84.0925 62.0887 90.1484 58.6815 92.1958C57.8702 92.6846 56.9257 92.9262 55.8653 92.9262L55.8595 92.9319ZM13.6867 14.556C12.8929 14.556 12.1975 14.7286 11.6065 15.0851C6.31027 18.2655 9.94346 36.9163 23.7867 59.5986C30.0332 69.8355 37.1025 78.7382 43.6852 84.6561C49.9607 90.2979 55.1468 92.5869 57.8934 90.9305C60.6458 89.2742 60.9993 83.6612 58.8669 75.5234C56.6302 66.9888 51.9598 56.654 45.7075 46.4113C39.4609 36.1744 32.3916 27.2717 25.809 21.3538C20.872 16.914 16.613 14.5503 13.6809 14.5503L13.6867 14.556Z" fill="#F7B232"/>
<path d="M6.07824 12.0946C4.9483 12.0946 3.84154 11.7841 2.86226 11.1744C1.48316 10.3175 0.527057 8.97753 0.156206 7.40748C-0.208851 5.83168 0.0634926 4.20987 0.926881 2.84111C1.79027 1.47235 3.13461 0.517669 4.72231 0.15535C7.99624 -0.592292 11.2702 1.43784 12.0292 4.68721C12.3943 6.25726 12.122 7.87907 11.2586 9.24783C10.3952 10.6166 9.05085 11.5713 7.46314 11.9336C7.00537 12.0371 6.54181 12.0889 6.07824 12.0889V12.0946ZM6.08983 1.48385C5.74795 1.48385 5.40028 1.52411 5.0526 1.59887C3.85893 1.87493 2.83908 2.59381 2.19009 3.62901C1.5411 4.66421 1.3325 5.88344 1.61064 7.07391C1.88878 8.25864 2.6131 9.27083 3.65612 9.91495C4.69914 10.5591 5.92758 10.7661 7.12706 10.4901C8.32073 10.214 9.34057 9.49512 9.98956 8.45993C10.6386 7.42473 10.8472 6.2055 10.569 5.01502C10.0765 2.91012 8.18166 1.4781 6.08983 1.4781V1.48385Z" fill="#F7B232"/>
<path d="M20.6286 89.8723C19.3886 89.8723 18.334 89.556 17.5112 88.9004C12.2439 84.6963 18.7396 68.2942 32.3047 51.5528C45.8639 34.8114 60.6111 24.9885 65.8783 29.1925C71.1456 33.3966 64.6499 49.7987 51.0848 66.5401C39.6406 80.6706 27.3503 89.8723 20.6228 89.8723H20.6286ZM62.6913 29.6756C57.0996 29.6756 45.4004 37.7559 33.4694 52.4845C19.5624 69.6515 14.4748 84.5813 18.4499 87.7502C22.4192 90.919 36.019 82.7812 49.9259 65.6142C63.8328 48.4472 68.9205 33.5174 64.9454 30.3485C64.3833 29.8999 63.6184 29.6756 62.6913 29.6756Z" fill="#3BA6DE"/>
<path d="M70.5835 28.5542C69.9635 28.5542 69.3493 28.4449 68.7524 28.2206C66.0695 27.2199 64.7078 24.2409 65.7161 21.5724C66.2028 20.2841 67.1705 19.2547 68.4337 18.6911C69.6969 18.1217 71.1108 18.0757 72.4088 18.5588C75.0917 19.5595 76.4534 22.5385 75.4451 25.207C74.9584 26.4953 73.9907 27.5247 72.7275 28.0883C72.0437 28.3989 71.3136 28.5542 70.5835 28.5542ZM70.5835 19.709C70.062 19.709 69.5405 19.8183 69.0537 20.0426C68.1498 20.4509 67.466 21.1755 67.1184 22.0957C66.3998 23.9936 67.3733 26.1215 69.2855 26.8346C70.2126 27.1797 71.2209 27.1452 72.1191 26.7426C73.023 26.3343 73.7068 25.6096 74.0544 24.6894C74.773 22.7916 73.7995 20.6637 71.8873 19.9505C71.4643 19.7895 71.0239 19.7147 70.5835 19.7147V19.709Z" fill="#3BA6DE"/>
</g>
<defs>
<clipPath id="clip0_6_291">
<rect width="542.857" height="100" fill="white"/>
</clipPath>
</defs>
</svg>
